<svg width="40" height="32" viewBox="0 0 40 32" fill="none" xmlns="http://www.w3.org/2000/svg">
    <path d="M39.2809 15.5127C39.2809 11.3985 37.6465 7.45275 34.7373 4.54356C31.8281 1.63437 27.8824 5.39515e-07 23.7682 0C19.654 -5.39514e-07 15.7083 1.63437 12.7991 4.54356C9.88986 7.45275 8.25549 11.3985 8.25549 15.5127H13.1033C14.7097 15.5127 15.9625 14.1665 16.5509 12.6717C16.9372 11.6903 17.5234 10.7884 18.2836 10.0281C19.7382 8.57352 21.7111 7.75634 23.7682 7.75634C25.8253 7.75634 27.7982 8.57352 29.2528 10.0281C30.7074 11.4827 31.5245 13.4556 31.5245 15.5127H39.2809Z" fill="url(#paint0_linear_1_7350)"/>
    <path d="M30.3445 21.4501C31.1241 19.568 31.5254 17.5508 31.5254 15.5137H39.2809C39.2809 24.0811 32.3356 31.0263 23.7682 31.0263C22.4265 31.0263 21.1245 30.856 19.8829 30.5358C20.5854 30.3548 21.2759 30.1243 21.9491 29.8455C23.8312 29.0659 25.5413 27.9233 26.9818 26.4828C28.4223 25.0423 29.565 23.3322 30.3445 21.4501Z" fill="#4392F9"/>
    <path d="M0.5 15.5117C0.5 17.5489 0.901247 19.5661 1.68083 21.4482C2.46042 23.3303 3.60307 25.0404 5.04356 26.4809C6.48404 27.9213 8.19415 29.064 10.0762 29.8436C11.9583 30.6232 13.9755 31.0244 16.0127 31.0244C18.0498 31.0244 20.067 30.6232 21.9491 29.8436C23.8312 29.064 25.5413 27.9213 26.9818 26.4809C28.4223 25.0404 29.5649 23.3303 30.3445 21.4482C31.1241 19.5661 31.5254 17.5489 31.5254 15.5117H26.6776C25.0712 15.5117 23.8184 16.8579 23.23 18.3526C23.2133 18.3952 23.1961 18.4376 23.1786 18.48C22.7888 19.421 22.2175 20.2761 21.4972 20.9963C20.777 21.7165 19.9219 22.2879 18.9809 22.6777C18.0399 23.0675 17.0313 23.2681 16.0127 23.2681C14.9941 23.2681 13.9855 23.0675 13.0445 22.6777C12.1034 22.2879 11.2484 21.7165 10.5281 20.9963C9.80787 20.2761 9.23655 19.421 8.84676 18.48C8.45696 17.5389 8.25634 16.5303 8.25634 15.5117H0.5Z" fill="url(#paint1_linear_1_7350)"/>
    <path d="M0.501587 15.5127C0.501587 6.94524 7.44683 0 16.0142 0C17.3556 0 18.6572 0.170246 19.8987 0.490323C17.2348 1.17657 14.7774 2.56535 12.7991 4.54357C9.88992 7.45273 8.25557 11.3985 8.25557 15.5127H0.501587Z" fill="#F83758"/>
    <defs>
        <linearGradient id="paint0_linear_1_7350" x1="39.2809" y1="7.75634" x2="8.25549" y2="7.75634" gradientUnits="userSpaceOnUse">
            <stop stop-color="#CFE2FC"/>
            <stop offset="1" stop-color="#4392F9"/>
        </linearGradient>
        <linearGradient id="paint1_linear_1_7350" x1="0.500001" y1="23.2681" x2="31.5254" y2="23.2681" gradientUnits="userSpaceOnUse">
            <stop stop-color="#F8BCC6"/>
            <stop offset="1" stop-color="#F83758"/>
        </linearGradient>
    </defs>
</svg>
